<svg width="334" height="156" viewBox="0 0 334 156" fill="none" xmlns="http://www.w3.org/2000/svg">
<path d="M6.016 63.72V63.592C6.016 30.824 33.28 12.008 66.944 12.008C70.656 12.008 74.752 12.264 78.72 12.52C82.688 12.904 86.528 13.416 89.856 13.928C89.344 23.144 89.088 29.416 88.832 47.08H84.992C84.224 41.064 81.792 37.608 79.104 35.432C76.16 33.128 70.528 31.976 64.256 31.976C48 31.976 32.64 43.624 32.64 62.696C32.64 82.408 45.696 94.184 62.848 94.184C68.992 94.184 75.136 92.904 78.976 90.344C82.176 88.296 84.608 85.48 85.504 79.72H89.344C89.344 90.472 89.6 103.016 89.856 111.08C87.296 111.848 83.072 112.872 78.848 113.512C73.856 114.28 68.736 114.536 62.848 114.536C30.336 114.536 6.016 95.08 6.016 63.72Z" fill="url(#paint0_linear_74_11)"/>
<path d="M152.522 62.92V71.88C152.522 89.16 152.522 91.08 158.858 91.08V93.128C155.914 93.064 151.498 93 147.018 93C142.282 93 137.674 93.064 134.474 93.128V91.08C140.554 91.08 140.554 89.16 140.554 76.68V72.584H121.61V76.68C121.61 89.16 121.61 91.08 127.754 91.08V93.128C124.618 93.064 120.01 93 115.274 93C110.794 93 106.378 93.064 103.626 93.128V91.08C109.642 91.08 109.642 89.16 109.642 71.88V62.92C109.642 46.92 109.642 45 103.882 45V42.952C106.57 43.016 111.306 43.08 115.914 43.08C120.394 43.08 124.618 43.016 127.178 42.952V45C121.61 45 121.61 46.984 121.61 60.04V62.792H140.554V59.976C140.554 46.92 140.554 45 135.242 45V42.952C137.866 43.016 142.218 43.08 146.762 43.08C151.114 43.08 155.338 43.016 157.706 42.952V45C152.522 45 152.522 46.92 152.522 62.92ZM187.26 62.856V71.816C187.26 89.096 187.26 91.08 193.404 91.08V93.128C190.524 93.064 186.044 93 181.18 93C176.188 93 172.028 93.064 169.276 93.128V91.08C175.292 91.08 175.292 89.16 175.292 72.072V62.92C175.292 46.92 175.292 45 169.532 45V42.952C172.22 43.016 176.828 43.08 181.244 43.08C185.916 43.08 190.524 43.016 192.828 42.952V45C187.324 45 187.26 46.856 187.26 62.856ZM210.067 71.88V62.92C210.067 46.92 210.067 45 204.307 45V42.952C206.547 43.016 211.283 43.08 215.891 43.08C220.371 43.08 224.851 43.016 227.411 42.952V45C222.099 45 222.035 46.984 222.035 60.552V63.944L222.227 63.88L226.963 58.504C236.819 47.304 237.395 45 232.531 45V42.952C235.987 43.016 240.211 43.08 243.795 43.08C247.379 43.08 252.307 43.016 254.995 42.952V45C251.283 45 250.195 47.112 239.059 59.144L232.595 66.12L242.963 78.984C251.155 89.032 252.883 91.08 256.659 91.08V93.128C254.227 93.064 249.619 93 245.267 93C241.363 93 237.779 93.064 233.043 93.128V91.08C237.587 91.08 235.347 87.944 229.587 80.2L222.163 70.216L222.035 70.28V74.632C222.035 89.224 222.099 91.08 227.987 91.08V93.128C224.851 93.064 221.139 93 216.403 93C211.923 93 206.355 93.064 204.051 93.128V91.08C210.067 91.08 210.067 89.16 210.067 71.88ZM282.31 62.856V71.816C282.31 89.096 282.31 91.08 288.454 91.08V93.128C285.574 93.064 281.094 93 276.23 93C271.238 93 267.078 93.064 264.326 93.128V91.08C270.342 91.08 270.342 89.16 270.342 72.072V62.92C270.342 46.92 270.342 45 264.582 45V42.952C267.27 43.016 271.878 43.08 276.294 43.08C280.966 43.08 285.574 43.016 287.878 42.952V45C282.374 45 282.31 46.856 282.31 62.856ZM329.757 78.344V78.408C329.757 87.432 322.909 93.576 311.837 93.576C306.717 93.576 302.173 92.488 299.869 91.4C300.061 88.072 300.317 82.824 300.381 75.912H302.429C302.621 78.856 303.837 80.968 305.309 82.184C306.909 83.464 309.149 83.848 311.069 83.848C314.845 83.848 317.277 82.248 317.277 79.24C317.277 77.128 315.933 75.72 313.949 74.312C313.053 73.672 311.133 72.456 309.149 71.176C302.429 66.824 300.573 62.6 300.573 57.736C300.573 48.904 307.613 42.76 317.853 42.76C320.989 42.76 325.341 43.464 327.325 44.168C327.069 48.776 327.069 54.536 327.069 59.528H325.021C324.957 57.16 324.189 55.496 323.037 54.28C322.013 53.192 320.349 52.616 318.109 52.616C314.717 52.616 312.861 54.472 312.861 56.84C312.861 58.568 313.885 59.912 315.741 61.256C317.405 62.472 319.389 63.752 322.205 65.672C327.261 69.128 329.757 73.416 329.757 78.344Z" fill="url(#paint1_linear_74_11)"/>
<path d="M103.742 148.676C105.352 150.488 107.344 151.395 109.719 151.395C110.797 151.395 111.66 151.18 112.309 150.75C113.074 150.227 113.457 149.5 113.457 148.57C113.457 147.727 113.125 147.039 112.461 146.508C112.023 146.156 110.969 145.652 109.297 144.996L108.852 144.82L108.055 144.504C108 144.48 107.902 144.441 107.762 144.387C106.043 143.738 104.93 143.203 104.422 142.781C104.344 142.711 104.246 142.613 104.129 142.488C103.293 141.59 102.875 140.508 102.875 139.242C102.875 137.609 103.461 136.293 104.633 135.293C105.859 134.246 107.516 133.723 109.602 133.723C111.055 133.723 112.352 133.938 113.492 134.367C114.398 134.719 115.301 135.258 116.199 135.984L114.582 138.234C113.199 136.922 111.547 136.266 109.625 136.266C108.367 136.266 107.453 136.559 106.883 137.145C106.398 137.645 106.156 138.25 106.156 138.961C106.156 139.773 106.508 140.422 107.211 140.906C107.656 141.219 108.602 141.633 110.047 142.148L110.984 142.488C113.047 143.23 114.461 143.957 115.227 144.668C116.289 145.66 116.82 146.906 116.82 148.406C116.82 150.266 116.09 151.715 114.629 152.754C113.426 153.605 111.785 154.031 109.707 154.031C106.473 154.031 103.883 152.934 101.938 150.738L103.742 148.676ZM136.695 134.156H153.16V136.863H146.48V153.598H143.363V136.863H136.695V134.156ZM173.621 134.156H176.762V146.32C176.762 147.68 177.055 148.766 177.641 149.578C178.539 150.805 179.879 151.418 181.66 151.418C183.637 151.418 185.047 150.695 185.891 149.25C186.336 148.484 186.559 147.508 186.559 146.32V134.156H189.699V146.848C189.699 148.676 189.227 150.172 188.281 151.336C186.805 153.164 184.594 154.078 181.648 154.078C178.727 154.078 176.523 153.164 175.039 151.336C174.094 150.18 173.621 148.684 173.621 146.848V134.156ZM212.117 134.156H218.469C221.188 134.156 223.406 134.715 225.125 135.832C226.5 136.73 227.523 137.965 228.195 139.535C228.758 140.832 229.039 142.27 229.039 143.848C229.039 146.52 228.277 148.727 226.754 150.469C225.605 151.781 224.137 152.676 222.348 153.152C221.199 153.449 219.844 153.598 218.281 153.598H212.117V134.156ZM215.234 136.77V150.938H217.848C220.129 150.938 221.867 150.531 223.062 149.719C224.836 148.5 225.723 146.543 225.723 143.848C225.723 140.996 224.723 138.973 222.723 137.777C221.598 137.105 220.02 136.77 217.988 136.77H215.234ZM249.594 134.156H257.75V136.312H255.254V151.441H257.75V153.598H249.594V151.441H252.09V136.312H249.594V134.156ZM287.574 133.699C289.527 133.699 291.262 134.191 292.777 135.176C294.387 136.215 295.555 137.68 296.281 139.57C296.781 140.867 297.031 142.285 297.031 143.824C297.031 146.418 296.352 148.629 294.992 150.457C294.039 151.73 292.836 152.676 291.383 153.293C290.203 153.801 288.914 154.055 287.516 154.055C284.445 154.055 282.012 152.922 280.215 150.656C278.754 148.812 278.023 146.535 278.023 143.824C278.023 142.09 278.34 140.508 278.973 139.078C280.105 136.539 281.977 134.883 284.586 134.109C285.508 133.836 286.504 133.699 287.574 133.699ZM287.504 136.242C286.129 136.242 284.922 136.684 283.883 137.566C282.234 138.965 281.41 141.055 281.41 143.836C281.41 145.461 281.707 146.875 282.301 148.078C282.746 148.969 283.332 149.695 284.059 150.258C285.059 151.031 286.223 151.418 287.551 151.418C289.426 151.418 290.938 150.664 292.086 149.156C293.125 147.789 293.645 146.016 293.645 143.836C293.645 141.609 293.094 139.805 291.992 138.422C290.836 136.969 289.34 136.242 287.504 136.242ZM318.828 148.676C320.438 150.488 322.43 151.395 324.805 151.395C325.883 151.395 326.746 151.18 327.395 150.75C328.16 150.227 328.543 149.5 328.543 148.57C328.543 147.727 328.211 147.039 327.547 146.508C327.109 146.156 326.055 145.652 324.383 144.996L323.938 144.82L323.141 144.504C323.086 144.48 322.988 144.441 322.848 144.387C321.129 143.738 320.016 143.203 319.508 142.781C319.43 142.711 319.332 142.613 319.215 142.488C318.379 141.59 317.961 140.508 317.961 139.242C317.961 137.609 318.547 136.293 319.719 135.293C320.945 134.246 322.602 133.723 324.688 133.723C326.141 133.723 327.438 133.938 328.578 134.367C329.484 134.719 330.387 135.258 331.285 135.984L329.668 138.234C328.285 136.922 326.633 136.266 324.711 136.266C323.453 136.266 322.539 136.559 321.969 137.145C321.484 137.645 321.242 138.25 321.242 138.961C321.242 139.773 321.594 140.422 322.297 140.906C322.742 141.219 323.688 141.633 325.133 142.148L326.07 142.488C328.133 143.23 329.547 143.957 330.312 144.668C331.375 145.66 331.906 146.906 331.906 148.406C331.906 150.266 331.176 151.715 329.715 152.754C328.512 153.605 326.871 154.031 324.793 154.031C321.559 154.031 318.969 152.934 317.023 150.738L318.828 148.676Z" fill="url(#paint2_linear_74_11)"/>
<path d="M101 113H334" stroke="#BCCCDC" stroke-width="3"/>
<defs>
<linearGradient id="paint0_linear_74_11" x1="50.5" y1="0" x2="50.5" y2="154" gradientUnits="userSpaceOnUse">
<stop stop-color="white"/>
<stop offset="1" stop-color="#BCCCDC"/>
</linearGradient>
<linearGradient id="paint1_linear_74_11" x1="217.5" y1="36" x2="217.5" y2="113" gradientUnits="userSpaceOnUse">
<stop stop-color="white"/>
<stop offset="1" stop-color="#BCCCDC"/>
</linearGradient>
<linearGradient id="paint2_linear_74_11" x1="217.5" y1="132" x2="217.5" y2="156" gradientUnits="userSpaceOnUse">
<stop stop-color="#BCCCDC"/>
<stop offset="1" stop-color="white"/>
</linearGradient>
</defs>
</svg>
